<svg xmlns="http://www.w3.org/2000/svg" xmlns:xlink="http://www.w3.org/1999/xlink" width="500" zoomAndPan="magnify" viewBox="0 0 375 374.999991" height="500" preserveAspectRatio="xMidYMid meet" version="1.0"><defs><g/><clipPath id="ec249a319e"><path d="M 18.273438 18.273438 L 356.726562 18.273438 L 356.726562 356.726562 L 18.273438 356.726562 Z M 18.273438 18.273438 " clip-rule="nonzero"/></clipPath><clipPath id="c414ddb911"><path d="M 17.375 17.375 L 357.875 17.375 L 357.875 357.875 L 17.375 357.875 Z M 17.375 17.375 " clip-rule="nonzero"/></clipPath></defs><g clip-path="url(#ec249a319e)"><path fill="#e5261f" d="M 357.875 357.875 L 17.375 357.875 L 17.375 17.375 L 357.875 17.375 Z M 19.832031 355.554688 L 355.554688 355.554688 L 355.554688 19.832031 L 19.832031 19.832031 Z M 19.832031 355.554688 " fill-opacity="1" fill-rule="nonzero"/></g><g clip-path="url(#c414ddb911)"><path stroke-linecap="butt" transform="matrix(0.750568, 0, 0, 0.750568, 17.373975, 17.373983)" fill="none" stroke-linejoin="miter" d="M 0.00136579 0.00135452 L 0.00136579 453.657622 L 453.657633 453.657622 L 453.657633 0.00135452 L 0.00136579 0.00135452 " stroke="#e5261f" stroke-width="14" stroke-opacity="1" stroke-miterlimit="4"/></g><g fill="#e5261f" fill-opacity="1"><g transform="translate(46.687293, 276.597709)"><g><path d="M 137.515625 -227.71875 C 139.710938 -229.1875 142.28125 -229.1875 145.21875 -227.71875 C 149.613281 -226.257812 153.28125 -223.328125 156.21875 -218.921875 C 158.414062 -215.253906 159.515625 -211.957031 159.515625 -209.03125 C 159.515625 -205.351562 156.765625 -199.296875 151.265625 -190.859375 C 145.765625 -182.429688 140.082031 -174.1875 134.21875 -166.125 C 126.144531 -157.320312 122.109375 -152.550781 122.109375 -151.8125 C 122.109375 -150.34375 124.675781 -151.078125 129.8125 -154.015625 C 145.945312 -161.347656 158.78125 -162.445312 168.3125 -157.3125 C 172.71875 -155.851562 174.550781 -152.738281 173.8125 -147.96875 C 173.082031 -143.195312 171.25 -136.78125 168.3125 -128.71875 C 165.382812 -123.582031 162.453125 -118.445312 159.515625 -113.3125 L 154.015625 -106.71875 L 154.015625 -92.40625 L 155.125 -78.109375 L 159.515625 -75.90625 C 164.648438 -72.238281 167.582031 -69.671875 168.3125 -68.203125 C 169.050781 -66.734375 169.050781 -64.347656 168.3125 -61.046875 C 167.582031 -57.753906 165.382812 -53.90625 161.71875 -49.5 L 156.21875 -37.40625 L 156.21875 -30.796875 C 156.945312 -25.671875 157.675781 -23.109375 158.40625 -23.109375 C 159.144531 -23.109375 160.984375 -23.472656 163.921875 -24.203125 C 181.523438 -28.597656 193.992188 -27.5 201.328125 -20.90625 C 203.523438 -18.707031 205.171875 -17.054688 206.265625 -15.953125 C 207.367188 -14.847656 207.554688 -13.195312 206.828125 -11 C 206.828125 -8.800781 205.359375 -6.234375 202.421875 -3.296875 C 200.953125 -1.828125 198.75 0.367188 195.8125 3.296875 C 192.882812 6.234375 191.054688 7.703125 190.328125 7.703125 C 190.328125 7.703125 188.675781 8.800781 185.375 11 C 182.070312 13.195312 179.6875 14.296875 178.21875 14.296875 C 174.550781 14.296875 171.617188 15.765625 169.421875 18.703125 C 167.953125 22.367188 166.484375 23.46875 165.015625 22 C 165.015625 19.800781 168.679688 15.398438 176.015625 8.796875 C 181.148438 2.929688 185.550781 -2.929688 189.21875 -8.796875 C 190.6875 -12.460938 191.238281 -14.476562 190.875 -14.84375 C 190.507812 -15.21875 188.125 -15.40625 183.71875 -15.40625 C 180.050781 -14.664062 175.285156 -13.5625 169.421875 -12.09375 C 163.554688 -10.632812 160.070312 -9.71875 158.96875 -9.34375 C 157.863281 -8.976562 157.3125 -3.296875 157.3125 7.703125 C 157.3125 18.703125 156.757812 26.398438 155.65625 30.796875 C 154.5625 35.203125 153.28125 37.769531 151.8125 38.5 C 151.082031 40.707031 148.695312 42.539062 144.65625 44 C 140.625 45.46875 137.878906 45.101562 136.421875 42.90625 L 132.015625 40.703125 C 130.546875 39.972656 128.894531 38.875 127.0625 37.40625 C 125.226562 35.9375 123.757812 34.46875 122.65625 33 C 121.5625 31.53125 121.015625 30.796875 121.015625 30.796875 C 121.015625 30.066406 124.679688 30.066406 132.015625 30.796875 C 134.953125 30.796875 136.601562 30.613281 136.96875 30.25 C 137.332031 29.882812 137.878906 28.96875 138.609375 27.5 C 140.078125 24.570312 141.175781 18.335938 141.90625 8.796875 C 142.644531 -0.734375 142.648438 -6.234375 141.921875 -7.703125 C 141.921875 -8.429688 140.453125 -8.796875 137.515625 -8.796875 C 133.847656 -8.796875 130.546875 -10.265625 127.609375 -13.203125 C 125.410156 -16.140625 124.3125 -19.804688 124.3125 -24.203125 C 124.3125 -27.140625 127.242188 -31.539062 133.109375 -37.40625 C 135.316406 -41.070312 137.519531 -44.554688 139.71875 -47.859375 C 141.914062 -51.160156 143.015625 -54.273438 143.015625 -57.203125 C 143.015625 -60.140625 142.644531 -61.609375 141.90625 -61.609375 C 141.175781 -61.609375 137.515625 -59.773438 130.921875 -56.109375 C 110.378906 -48.773438 96.804688 -41.441406 90.203125 -34.109375 C 87.273438 -30.441406 85.078125 -28.609375 83.609375 -28.609375 C 82.140625 -28.609375 81.40625 -29.335938 81.40625 -30.796875 C 81.40625 -33.734375 83.238281 -37.21875 86.90625 -41.25 C 90.570312 -45.289062 94.238281 -49.144531 97.90625 -52.8125 C 103.039062 -55.007812 109.640625 -58.304688 117.703125 -62.703125 C 125.773438 -67.109375 132.378906 -70.773438 137.515625 -73.703125 C 140.453125 -75.171875 142.285156 -75.90625 143.015625 -75.90625 C 143.015625 -76.644531 143.015625 -79.578125 143.015625 -84.703125 C 143.015625 -89.835938 142.832031 -92.585938 142.46875 -92.953125 C 142.101562 -93.328125 140.453125 -92.78125 137.515625 -91.3125 C 128.710938 -83.976562 121.378906 -81.410156 115.515625 -83.609375 C 112.578125 -83.609375 110.191406 -84.890625 108.359375 -87.453125 C 106.523438 -90.023438 105.609375 -91.859375 105.609375 -92.953125 C 105.609375 -94.054688 105.238281 -95.523438 104.5 -97.359375 C 103.769531 -99.191406 103.773438 -101.207031 104.515625 -103.40625 C 105.984375 -107.8125 108.550781 -112.210938 112.21875 -116.609375 C 115.882812 -121.015625 119.179688 -124.316406 122.109375 -126.515625 C 130.910156 -130.910156 138.976562 -129.8125 146.3125 -123.21875 C 148.507812 -121.75 149.609375 -121.015625 149.609375 -121.015625 C 150.347656 -121.015625 153.648438 -125.414062 159.515625 -134.21875 C 161.710938 -138.613281 162.992188 -142.828125 163.359375 -146.859375 C 163.734375 -150.898438 163.550781 -153.285156 162.8125 -154.015625 C 160.613281 -156.210938 152.546875 -155.476562 138.609375 -151.8125 C 134.941406 -149.613281 129.070312 -146.3125 121 -141.90625 C 112.9375 -137.507812 107.070312 -133.113281 103.40625 -128.71875 C 99.738281 -126.519531 96.804688 -123.398438 94.609375 -119.359375 C 92.410156 -115.328125 90.941406 -112.945312 90.203125 -112.21875 C 89.472656 -112.21875 87.820312 -112.765625 85.25 -113.859375 C 82.6875 -114.960938 81.039062 -116.613281 80.3125 -118.8125 C 78.113281 -121.75 77.378906 -123.953125 78.109375 -125.421875 C 78.109375 -126.878906 80.859375 -130.359375 86.359375 -135.859375 C 91.859375 -141.359375 95.34375 -145.578125 96.8125 -148.515625 C 112.945312 -166.117188 126.878906 -184.453125 138.609375 -203.515625 C 145.941406 -213.054688 148.507812 -218.925781 146.3125 -221.125 C 145.582031 -221.851562 143.75 -222.585938 140.8125 -223.328125 C 137.144531 -225.523438 136.046875 -226.988281 137.515625 -227.71875 Z M 134.21875 -121.015625 C 128.351562 -122.484375 123.582031 -121.75 119.90625 -118.8125 C 117.707031 -116.613281 115.140625 -113.3125 112.203125 -108.90625 C 109.273438 -104.507812 107.8125 -101.578125 107.8125 -100.109375 C 108.539062 -97.910156 110.375 -96.625 113.3125 -96.25 C 116.25 -95.882812 118.816406 -95.703125 121.015625 -95.703125 C 127.617188 -98.640625 133.484375 -103.039062 138.609375 -108.90625 C 140.078125 -109.644531 140.8125 -111.113281 140.8125 -113.3125 C 139.34375 -114.039062 138.054688 -115.320312 136.953125 -117.15625 C 135.859375 -118.988281 134.945312 -120.273438 134.21875 -121.015625 Z M 134.21875 -121.015625 "/></g></g></g></svg>