<svg xmlns="http://www.w3.org/2000/svg" xmlns:xlink="http://www.w3.org/1999/xlink" width="500" zoomAndPan="magnify" viewBox="0 0 375 374.999991" height="500" preserveAspectRatio="xMidYMid meet" version="1.0"><defs><g/><clipPath id="4cdfc3e989"><path d="M 35.648438 32.894531 L 339.351562 32.894531 L 339.351562 336.601562 L 35.648438 336.601562 Z M 35.648438 32.894531 " clip-rule="nonzero"/></clipPath><clipPath id="0d0389defe"><path d="M 34.746094 31.996094 L 339.996094 31.996094 L 339.996094 337.246094 L 34.746094 337.246094 Z M 34.746094 31.996094 " clip-rule="nonzero"/></clipPath></defs><g clip-path="url(#4cdfc3e989)"><path fill="#e5261f" d="M 339.996094 337.246094 L 34.746094 337.246094 L 34.746094 31.996094 L 339.996094 31.996094 Z M 36.949219 335.164062 L 337.917969 335.164062 L 337.917969 34.199219 L 36.949219 34.199219 Z M 36.949219 335.164062 " fill-opacity="1" fill-rule="nonzero"/></g><g clip-path="url(#0d0389defe)"><path stroke-linecap="butt" transform="matrix(0.749396, 0, 0, 0.749396, 34.747945, 31.995906)" fill="none" stroke-linejoin="miter" d="M -0.00247067 0.000250457 L -0.00247067 407.328421 L 407.3257 407.328421 L 407.3257 0.000250457 L -0.00247067 0.000250457 " stroke="#e5261f" stroke-width="14" stroke-opacity="1" stroke-miterlimit="4"/></g><path fill="#e5261f" d="M 35.988281 186 L 44.992188 185.917969 L 45.019531 188.917969 L 36.011719 189 M 47.996094 185.890625 L 57.003906 185.808594 L 57.03125 188.808594 L 48.023438 188.890625 M 60.003906 185.78125 L 69.011719 185.703125 L 69.039062 188.699219 L 60.03125 188.78125 M 72.015625 185.675781 L 81.019531 185.59375 L 81.046875 188.59375 L 72.042969 188.675781 M 84.023438 185.566406 L 93.03125 185.484375 L 93.058594 188.484375 L 84.050781 188.566406 M 96.03125 185.457031 L 105.039062 185.375 L 105.066406 188.375 L 96.058594 188.457031 M 108.042969 185.347656 L 117.046875 185.265625 L 117.074219 188.265625 L 108.070312 188.347656 M 120.050781 185.238281 L 129.058594 185.15625 L 129.085938 188.15625 L 120.078125 188.238281 M 132.058594 185.132812 L 141.066406 185.050781 L 141.09375 188.050781 L 132.085938 188.128906 M 144.070312 185.023438 L 153.078125 184.941406 L 153.101562 187.941406 L 144.097656 188.023438 M 156.078125 184.914062 L 165.085938 184.832031 L 165.113281 187.832031 L 156.105469 187.914062 M 168.085938 184.804688 L 177.09375 184.722656 L 177.121094 187.722656 L 168.113281 187.804688 M 180.097656 184.695312 L 189.105469 184.613281 L 189.132812 187.613281 L 180.125 187.695312 M 192.105469 184.585938 L 201.113281 184.507812 L 201.140625 187.507812 L 192.132812 187.585938 M 204.117188 184.480469 L 213.121094 184.398438 L 213.148438 187.398438 L 204.140625 187.480469 M 216.125 184.371094 L 225.132812 184.289062 L 225.160156 187.289062 L 216.152344 187.371094 M 228.132812 184.261719 L 237.140625 184.179688 L 237.167969 187.179688 L 228.160156 187.261719 M 240.144531 184.152344 L 249.148438 184.070312 L 249.175781 187.070312 L 240.171875 187.152344 M 252.152344 184.042969 L 261.160156 183.964844 L 261.1875 186.964844 L 252.179688 187.042969 M 264.160156 183.9375 L 273.167969 183.855469 L 273.195312 186.855469 L 264.1875 186.9375 M 276.171875 183.828125 L 285.175781 183.746094 L 285.203125 186.746094 L 276.199219 186.828125 M 288.179688 183.71875 L 297.1875 183.636719 L 297.214844 186.636719 L 288.207031 186.71875 M 300.1875 183.609375 L 309.195312 183.527344 L 309.222656 186.527344 L 300.214844 186.609375 M 312.199219 183.5 L 321.207031 183.421875 L 321.230469 186.421875 L 312.226562 186.5 M 324.207031 183.394531 L 333.214844 183.3125 L 333.242188 186.3125 L 324.234375 186.394531 M 336.21875 183.285156 L 340.484375 183.246094 L 340.511719 186.246094 L 336.242188 186.285156 " fill-opacity="1" fill-rule="nonzero"/><path fill="#e5261f" d="M 188.75 336.019531 L 188.667969 327.027344 L 191.667969 327 L 191.75 335.992188 M 188.640625 324.027344 L 188.558594 315.039062 L 191.558594 315.011719 L 191.640625 324.003906 M 188.535156 312.039062 L 188.453125 303.046875 L 191.453125 303.023438 L 191.535156 312.011719 M 188.425781 300.050781 L 188.34375 291.058594 L 191.34375 291.03125 L 191.425781 300.023438 M 188.316406 288.0625 L 188.234375 279.070312 L 191.234375 279.042969 L 191.316406 288.035156 M 188.207031 276.074219 L 188.125 267.082031 L 191.125 267.054688 L 191.207031 276.046875 M 188.097656 264.085938 L 188.019531 255.09375 L 191.019531 255.066406 L 191.097656 264.058594 M 187.992188 252.097656 L 187.910156 243.105469 L 190.910156 243.078125 L 190.992188 252.070312 M 187.882812 240.105469 L 187.800781 231.117188 L 190.800781 231.089844 L 190.882812 240.078125 M 187.773438 228.117188 L 187.691406 219.125 L 190.691406 219.097656 L 190.773438 228.089844 M 187.664062 216.128906 L 187.582031 207.136719 L 190.582031 207.109375 L 190.664062 216.101562 M 187.554688 204.140625 L 187.476562 195.148438 L 190.476562 195.121094 L 190.554688 204.113281 M 187.449219 192.152344 L 187.367188 183.160156 L 190.367188 183.132812 L 190.449219 192.125 M 187.339844 180.164062 L 187.257812 171.171875 L 190.257812 171.144531 L 190.339844 180.136719 M 187.230469 168.175781 L 187.148438 159.183594 L 190.148438 159.15625 L 190.230469 168.148438 M 187.121094 156.183594 L 187.042969 147.195312 L 190.039062 147.167969 L 190.121094 156.15625 M 187.015625 144.195312 L 186.933594 135.203125 L 189.933594 135.175781 L 190.015625 144.167969 M 186.90625 132.207031 L 186.824219 123.214844 L 189.824219 123.1875 L 189.90625 132.179688 M 186.796875 120.21875 L 186.714844 111.226562 L 189.714844 111.199219 L 189.796875 120.191406 M 186.6875 108.230469 L 186.605469 99.238281 L 189.605469 99.210938 L 189.6875 108.203125 M 186.578125 96.242188 L 186.5 87.25 L 189.5 87.222656 L 189.578125 96.214844 M 186.472656 84.25 L 186.390625 75.261719 L 189.390625 75.234375 L 189.472656 84.226562 M 186.363281 72.261719 L 186.28125 63.269531 L 189.28125 63.246094 L 189.363281 72.234375 M 186.253906 60.273438 L 186.171875 51.28125 L 189.171875 51.253906 L 189.253906 60.246094 M 186.144531 48.285156 L 186.0625 39.292969 L 189.0625 39.265625 L 189.144531 48.257812 M 186.039062 36.296875 L 186 32.277344 L 189 32.25 L 189.035156 36.269531 " fill-opacity="1" fill-rule="nonzero"/><g fill="#e5261f" fill-opacity="1"><g transform="translate(60.857816, 283.614005)"><g><path d="M 115.375 -203 L 123.734375 -202.25 L 128.671875 -202.25 C 129.765625 -201.570312 133.941406 -200.175781 141.203125 -198.0625 C 141.203125 -197.300781 144.707031 -196.160156 151.71875 -194.640625 C 154.925781 -191.097656 156.992188 -187.847656 157.921875 -184.890625 L 157.921875 -181.34375 C 157.921875 -177.96875 147.453125 -174.46875 126.515625 -170.84375 C 126.515625 -170.414062 125.835938 -170.203125 124.484375 -170.203125 L 121.703125 -170.203125 C 121.191406 -170.203125 120.9375 -170.414062 120.9375 -170.84375 L 97.890625 -166.03125 C 97.296875 -165.269531 92.398438 -163.832031 83.203125 -161.71875 C 82.691406 -161.71875 82.015625 -161.972656 81.171875 -162.484375 L 76.875 -161.71875 L 75.484375 -161.71875 C 74.546875 -161.71875 74.078125 -162.179688 74.078125 -163.109375 C 75.679688 -164.796875 80.367188 -166.90625 88.140625 -169.4375 C 94.554688 -173.15625 101.3125 -177.585938 108.40625 -182.734375 C 120.988281 -190.085938 127.28125 -194.054688 127.28125 -194.640625 L 127.28125 -195.28125 C 127.28125 -196.539062 123.3125 -198.648438 115.375 -201.609375 Z M 178.1875 -168.8125 C 188.90625 -165.519531 194.265625 -162.015625 194.265625 -158.296875 L 195.65625 -155.515625 C 195.65625 -148.847656 192.660156 -144.625 186.671875 -142.84375 C 184.046875 -141.914062 181.929688 -140.78125 180.328125 -139.4375 L 178.9375 -140.0625 C 173.539062 -137.28125 169.828125 -135.890625 167.796875 -135.890625 C 167.796875 -135.460938 166.867188 -134.785156 165.015625 -133.859375 L 161.46875 -133.859375 C 161.46875 -132.421875 158.890625 -130.773438 153.734375 -128.921875 L 153.109375 -128.921875 C 152.597656 -128.921875 152.34375 -129.175781 152.34375 -129.6875 C 150.0625 -128.25 148.457031 -127.53125 147.53125 -127.53125 L 146.78125 -128.921875 C 153.78125 -134.742188 158.925781 -139.894531 162.21875 -144.375 C 165.175781 -148.164062 168.175781 -153.269531 171.21875 -159.6875 L 171.21875 -163.109375 C 171.21875 -164.117188 169.820312 -164.835938 167.03125 -165.265625 L 167.03125 -167.421875 C 174.039062 -167.835938 177.757812 -168.300781 178.1875 -168.8125 Z M 100.546875 -151.328125 L 104.859375 -150.453125 L 112.578125 -150.453125 C 124.648438 -145.210938 130.6875 -138.582031 130.6875 -130.5625 C 128.75 -126.59375 127.316406 -124.609375 126.390625 -124.609375 L 122.96875 -126.265625 C 120.6875 -125.160156 118.660156 -124.609375 116.890625 -124.609375 C 111.234375 -130.523438 106.628906 -137.40625 103.078125 -145.25 C 102.742188 -145.25 101.609375 -146.984375 99.671875 -150.453125 C 100.253906 -150.453125 100.546875 -150.742188 100.546875 -151.328125 Z M 47.609375 -147.796875 L 49.015625 -147.796875 L 65.71875 -134.484375 C 66.820312 -134.484375 70.078125 -131.703125 75.484375 -126.140625 L 76.234375 -126.140625 C 77.160156 -126.640625 77.835938 -126.890625 78.265625 -126.890625 C 79.441406 -121.066406 82.015625 -116.382812 85.984375 -112.84375 C 86.492188 -112.082031 86.75 -111.148438 86.75 -110.046875 C 85.820312 -106.335938 84.894531 -104.484375 83.96875 -104.484375 C 83.457031 -104.484375 82.738281 -104.734375 81.8125 -105.234375 L 77.625 -104.484375 L 67.125 -110.046875 C 60.113281 -115.367188 54.285156 -126.300781 49.640625 -142.84375 C 49.046875 -142.84375 48.367188 -144.492188 47.609375 -147.796875 Z M 121.703125 -109.421875 C 128.117188 -109.421875 132.71875 -105.113281 135.5 -96.5 C 139.726562 -97.34375 144.332031 -98.226562 149.3125 -99.15625 C 149.3125 -99.664062 149.519531 -99.921875 149.9375 -99.921875 C 149.9375 -99.921875 149.976562 -99.921875 150.0625 -99.921875 C 150.488281 -99.835938 150.703125 -99.5 150.703125 -98.90625 C 161.253906 -101.019531 176.195312 -102.078125 195.53125 -102.078125 C 200.9375 -102.078125 206.71875 -101.988281 212.875 -101.8125 C 219.289062 -100.882812 223.722656 -97.382812 226.171875 -91.3125 C 227.273438 -91.132812 227.992188 -88.769531 228.328125 -84.21875 C 226.984375 -80.5 225.335938 -78.175781 223.390625 -77.25 L 221.234375 -77.5 C 220.816406 -77.582031 220.609375 -77.921875 220.609375 -78.515625 L 219.21875 -77.75 L 216.421875 -78.265625 C 214.734375 -79.953125 212.625 -81.679688 210.09375 -83.453125 L 206.671875 -83.078125 L 198.953125 -84.21875 C 198.441406 -84.300781 198.1875 -84.597656 198.1875 -85.109375 L 198.0625 -85.109375 C 197.726562 -85.109375 197.5625 -84.851562 197.5625 -84.34375 L 193.375 -85.859375 C 186.375 -86.285156 180.550781 -86.835938 175.90625 -87.515625 L 173.125 -88.015625 C 168.726562 -87.503906 165.6875 -86.785156 164 -85.859375 L 159.0625 -87.375 C 152.132812 -87.039062 145.210938 -86.113281 138.296875 -84.59375 L 138.421875 -83.453125 C 138.835938 -75.773438 139.046875 -69.992188 139.046875 -66.109375 L 139.046875 -63.953125 C 139.046875 -62.265625 138.835938 -60.15625 138.421875 -57.625 C 138.835938 -56.863281 139.046875 -55.722656 139.046875 -54.203125 L 138.421875 -50.65625 C 138.835938 -48.207031 139.046875 -45.882812 139.046875 -43.6875 C 139.046875 -42.675781 138.835938 -41.75 138.421875 -40.90625 C 140.785156 -23.507812 141.96875 -11.394531 141.96875 -4.5625 C 140.78125 -1.269531 139.34375 0.375 137.65625 0.375 C 135.800781 -0.382812 134.875 -1.097656 134.875 -1.765625 L 131.453125 -1.015625 C 128.078125 -4.304688 125.753906 -5.953125 124.484375 -5.953125 C 123.554688 -5.523438 122.835938 -5.3125 122.328125 -5.3125 C 112.203125 -12.238281 105.703125 -18.992188 102.828125 -25.578125 L 104.21875 -26.21875 C 108.945312 -21.320312 113.335938 -18.535156 117.390625 -17.859375 L 118.15625 -17.859375 L 118.78125 -24.828125 L 118.78125 -33.9375 C 118.78125 -35.457031 119.035156 -36.597656 119.546875 -37.359375 C 119.546875 -37.867188 119.289062 -38.585938 118.78125 -39.515625 L 121.578125 -82.828125 C 120.054688 -82.316406 119.039062 -81.804688 118.53125 -81.296875 C 117.6875 -82.054688 117.015625 -82.476562 116.515625 -82.5625 C 116.515625 -81.632812 114.191406 -80.832031 109.546875 -80.15625 C 109.546875 -79.226562 107.179688 -78.679688 102.453125 -78.515625 C 95.703125 -74.628906 88.269531 -72.304688 80.15625 -71.546875 C 79.738281 -70.285156 72.734375 -67.585938 59.140625 -63.453125 C 59.054688 -63.453125 58.929688 -63.453125 58.765625 -63.453125 C 57.160156 -63.453125 54.289062 -62.179688 50.15625 -59.640625 C 49.050781 -59.816406 47.992188 -59.90625 46.984375 -59.90625 C 44.109375 -59.90625 41.867188 -59.144531 40.265625 -57.625 L 36.09375 -58.25 C 36.09375 -56.144531 35.671875 -55.09375 34.828125 -55.09375 C 34.828125 -55.09375 34.785156 -55.09375 34.703125 -55.09375 L 34.0625 -55.21875 C 33.5625 -55.21875 33.3125 -55.515625 33.3125 -56.109375 C 32.632812 -55.765625 32.039062 -55.59375 31.53125 -55.59375 C 31.445312 -55.59375 31.363281 -55.59375 31.28125 -55.59375 C 27.0625 -57.445312 24.953125 -59.175781 24.953125 -60.78125 L 24.953125 -64.203125 C 25.117188 -65.210938 25.539062 -65.71875 26.21875 -65.71875 C 26.21875 -65.71875 26.257812 -65.71875 26.34375 -65.71875 C 28.113281 -63.695312 30.222656 -62.519531 32.671875 -62.1875 C 43.734375 -66.320312 51.628906 -69.738281 56.359375 -72.4375 C 72.734375 -78.601562 87.882812 -83.835938 101.8125 -88.140625 C 104.519531 -89.492188 111.316406 -91.351562 122.203125 -93.71875 L 122.328125 -94.734375 C 121.398438 -98.867188 120.6875 -103.507812 120.1875 -108.65625 Z M 175.390625 -56.234375 C 176.660156 -56.234375 178.304688 -55.554688 180.328125 -54.203125 L 181.734375 -54.203125 L 184.515625 -56.234375 L 185.28125 -56.234375 C 186.707031 -54.453125 190.628906 -52.847656 197.046875 -51.421875 C 204.304688 -44.328125 208.066406 -38.035156 208.328125 -32.546875 C 209.085938 -32.546875 209.757812 -30.898438 210.34375 -27.609375 C 210.34375 -23.390625 208.488281 -19.882812 204.78125 -17.09375 C 201.570312 -17.09375 196 -18.738281 188.0625 -22.03125 C 184.769531 -22.03125 183.125 -22.960938 183.125 -24.828125 L 183.125 -31.78125 C 183.125 -36.09375 181.476562 -41.707031 178.1875 -48.625 C 173.875 -50.90625 168.550781 -52.507812 162.21875 -53.4375 L 161.46875 -54.828125 L 161.46875 -55.59375 C 166.957031 -55.082031 170.925781 -54.828125 173.375 -54.828125 C 173.625 -54.828125 174.296875 -55.296875 175.390625 -56.234375 Z M 67.125 -48.625 L 71.296875 -48.625 C 76.191406 -42.882812 79.234375 -38.914062 80.421875 -36.71875 C 81.347656 -30.8125 83.203125 -26.847656 85.984375 -24.828125 L 85.984375 -23.421875 C 84.546875 -22.410156 83.15625 -19.835938 81.8125 -15.703125 L 79.65625 -14.3125 C 69.019531 -16.757812 63.703125 -19.546875 63.703125 -22.671875 C 62.179688 -22.671875 60.742188 -26.890625 59.390625 -35.328125 C 63.023438 -43.691406 65.132812 -47.875 65.71875 -47.875 Z M 67.125 -48.625 "/></g></g></g></svg>