<svg xmlns="http://www.w3.org/2000/svg" xmlns:xlink="http://www.w3.org/1999/xlink" width="500" zoomAndPan="magnify" viewBox="0 0 375 374.999991" height="500" preserveAspectRatio="xMidYMid meet" version="1.0"><defs><g/><clipPath id="a2832aaf20"><path d="M 35.648438 32.894531 L 339.351562 32.894531 L 339.351562 336.601562 L 35.648438 336.601562 Z M 35.648438 32.894531 " clip-rule="nonzero"/></clipPath><clipPath id="c861ba5ba9"><path d="M 34.746094 31.996094 L 339.996094 31.996094 L 339.996094 337.246094 L 34.746094 337.246094 Z M 34.746094 31.996094 " clip-rule="nonzero"/></clipPath></defs><g clip-path="url(#a2832aaf20)"><path fill="#e5261f" d="M 339.996094 337.246094 L 34.746094 337.246094 L 34.746094 31.996094 L 339.996094 31.996094 Z M 36.949219 335.164062 L 337.917969 335.164062 L 337.917969 34.199219 L 36.949219 34.199219 Z M 36.949219 335.164062 " fill-opacity="1" fill-rule="nonzero"/></g><g clip-path="url(#c861ba5ba9)"><path stroke-linecap="butt" transform="matrix(0.749396, 0, 0, 0.749396, 34.747945, 31.995818)" fill="none" stroke-linejoin="miter" d="M -0.00247067 0.000367671 L -0.00247067 407.328538 L 407.3257 407.328538 L 407.3257 0.000367671 L -0.00247067 0.000367671 " stroke="#e5261f" stroke-width="14" stroke-opacity="1" stroke-miterlimit="4"/></g><g fill="#e5261f" fill-opacity="1"><g transform="translate(60.857816, 280.173614)"><g><path d="M 115.375 -203 L 123.734375 -202.25 L 128.671875 -202.25 C 129.765625 -201.570312 133.941406 -200.175781 141.203125 -198.0625 C 141.203125 -197.300781 144.707031 -196.160156 151.71875 -194.640625 C 154.925781 -191.097656 156.992188 -187.847656 157.921875 -184.890625 L 157.921875 -181.34375 C 157.921875 -177.96875 147.453125 -174.46875 126.515625 -170.84375 C 126.515625 -170.414062 125.835938 -170.203125 124.484375 -170.203125 L 121.703125 -170.203125 C 121.191406 -170.203125 120.9375 -170.414062 120.9375 -170.84375 L 97.890625 -166.03125 C 97.296875 -165.269531 92.398438 -163.832031 83.203125 -161.71875 C 82.691406 -161.71875 82.015625 -161.972656 81.171875 -162.484375 L 76.875 -161.71875 L 75.484375 -161.71875 C 74.546875 -161.71875 74.078125 -162.179688 74.078125 -163.109375 C 75.679688 -164.796875 80.367188 -166.90625 88.140625 -169.4375 C 94.554688 -173.15625 101.3125 -177.585938 108.40625 -182.734375 C 120.988281 -190.085938 127.28125 -194.054688 127.28125 -194.640625 L 127.28125 -195.28125 C 127.28125 -196.539062 123.3125 -198.648438 115.375 -201.609375 Z M 178.1875 -168.8125 C 188.90625 -165.519531 194.265625 -162.015625 194.265625 -158.296875 L 195.65625 -155.515625 C 195.65625 -148.847656 192.660156 -144.625 186.671875 -142.84375 C 184.046875 -141.914062 181.929688 -140.78125 180.328125 -139.4375 L 178.9375 -140.0625 C 173.539062 -137.28125 169.828125 -135.890625 167.796875 -135.890625 C 167.796875 -135.460938 166.867188 -134.785156 165.015625 -133.859375 L 161.46875 -133.859375 C 161.46875 -132.421875 158.890625 -130.773438 153.734375 -128.921875 L 153.109375 -128.921875 C 152.597656 -128.921875 152.34375 -129.175781 152.34375 -129.6875 C 150.0625 -128.25 148.457031 -127.53125 147.53125 -127.53125 L 146.78125 -128.921875 C 153.78125 -134.742188 158.925781 -139.894531 162.21875 -144.375 C 165.175781 -148.164062 168.175781 -153.269531 171.21875 -159.6875 L 171.21875 -163.109375 C 171.21875 -164.117188 169.820312 -164.835938 167.03125 -165.265625 L 167.03125 -167.421875 C 174.039062 -167.835938 177.757812 -168.300781 178.1875 -168.8125 Z M 100.546875 -151.328125 L 104.859375 -150.453125 L 112.578125 -150.453125 C 124.648438 -145.210938 130.6875 -138.582031 130.6875 -130.5625 C 128.75 -126.59375 127.316406 -124.609375 126.390625 -124.609375 L 122.96875 -126.265625 C 120.6875 -125.160156 118.660156 -124.609375 116.890625 -124.609375 C 111.234375 -130.523438 106.628906 -137.40625 103.078125 -145.25 C 102.742188 -145.25 101.609375 -146.984375 99.671875 -150.453125 C 100.253906 -150.453125 100.546875 -150.742188 100.546875 -151.328125 Z M 47.609375 -147.796875 L 49.015625 -147.796875 L 65.71875 -134.484375 C 66.820312 -134.484375 70.078125 -131.703125 75.484375 -126.140625 L 76.234375 -126.140625 C 77.160156 -126.640625 77.835938 -126.890625 78.265625 -126.890625 C 79.441406 -121.066406 82.015625 -116.382812 85.984375 -112.84375 C 86.492188 -112.082031 86.75 -111.148438 86.75 -110.046875 C 85.820312 -106.335938 84.894531 -104.484375 83.96875 -104.484375 C 83.457031 -104.484375 82.738281 -104.734375 81.8125 -105.234375 L 77.625 -104.484375 L 67.125 -110.046875 C 60.113281 -115.367188 54.285156 -126.300781 49.640625 -142.84375 C 49.046875 -142.84375 48.367188 -144.492188 47.609375 -147.796875 Z M 121.703125 -109.421875 C 128.117188 -109.421875 132.71875 -105.113281 135.5 -96.5 C 139.726562 -97.34375 144.332031 -98.226562 149.3125 -99.15625 C 149.3125 -99.664062 149.519531 -99.921875 149.9375 -99.921875 C 149.9375 -99.921875 149.976562 -99.921875 150.0625 -99.921875 C 150.488281 -99.835938 150.703125 -99.5 150.703125 -98.90625 C 161.253906 -101.019531 176.195312 -102.078125 195.53125 -102.078125 C 200.9375 -102.078125 206.71875 -101.988281 212.875 -101.8125 C 219.289062 -100.882812 223.722656 -97.382812 226.171875 -91.3125 C 227.273438 -91.132812 227.992188 -88.769531 228.328125 -84.21875 C 226.984375 -80.5 225.335938 -78.175781 223.390625 -77.25 L 221.234375 -77.5 C 220.816406 -77.582031 220.609375 -77.921875 220.609375 -78.515625 L 219.21875 -77.75 L 216.421875 -78.265625 C 214.734375 -79.953125 212.625 -81.679688 210.09375 -83.453125 L 206.671875 -83.078125 L 198.953125 -84.21875 C 198.441406 -84.300781 198.1875 -84.597656 198.1875 -85.109375 L 198.0625 -85.109375 C 197.726562 -85.109375 197.5625 -84.851562 197.5625 -84.34375 L 193.375 -85.859375 C 186.375 -86.285156 180.550781 -86.835938 175.90625 -87.515625 L 173.125 -88.015625 C 168.726562 -87.503906 165.6875 -86.785156 164 -85.859375 L 159.0625 -87.375 C 152.132812 -87.039062 145.210938 -86.113281 138.296875 -84.59375 L 138.421875 -83.453125 C 138.835938 -75.773438 139.046875 -69.992188 139.046875 -66.109375 L 139.046875 -63.953125 C 139.046875 -62.265625 138.835938 -60.15625 138.421875 -57.625 C 138.835938 -56.863281 139.046875 -55.722656 139.046875 -54.203125 L 138.421875 -50.65625 C 138.835938 -48.207031 139.046875 -45.882812 139.046875 -43.6875 C 139.046875 -42.675781 138.835938 -41.75 138.421875 -40.90625 C 140.785156 -23.507812 141.96875 -11.394531 141.96875 -4.5625 C 140.78125 -1.269531 139.34375 0.375 137.65625 0.375 C 135.800781 -0.382812 134.875 -1.097656 134.875 -1.765625 L 131.453125 -1.015625 C 128.078125 -4.304688 125.753906 -5.953125 124.484375 -5.953125 C 123.554688 -5.523438 122.835938 -5.3125 122.328125 -5.3125 C 112.203125 -12.238281 105.703125 -18.992188 102.828125 -25.578125 L 104.21875 -26.21875 C 108.945312 -21.320312 113.335938 -18.535156 117.390625 -17.859375 L 118.15625 -17.859375 L 118.78125 -24.828125 L 118.78125 -33.9375 C 118.78125 -35.457031 119.035156 -36.597656 119.546875 -37.359375 C 119.546875 -37.867188 119.289062 -38.585938 118.78125 -39.515625 L 121.578125 -82.828125 C 120.054688 -82.316406 119.039062 -81.804688 118.53125 -81.296875 C 117.6875 -82.054688 117.015625 -82.476562 116.515625 -82.5625 C 116.515625 -81.632812 114.191406 -80.832031 109.546875 -80.15625 C 109.546875 -79.226562 107.179688 -78.679688 102.453125 -78.515625 C 95.703125 -74.628906 88.269531 -72.304688 80.15625 -71.546875 C 79.738281 -70.285156 72.734375 -67.585938 59.140625 -63.453125 C 59.054688 -63.453125 58.929688 -63.453125 58.765625 -63.453125 C 57.160156 -63.453125 54.289062 -62.179688 50.15625 -59.640625 C 49.050781 -59.816406 47.992188 -59.90625 46.984375 -59.90625 C 44.109375 -59.90625 41.867188 -59.144531 40.265625 -57.625 L 36.09375 -58.25 C 36.09375 -56.144531 35.671875 -55.09375 34.828125 -55.09375 C 34.828125 -55.09375 34.785156 -55.09375 34.703125 -55.09375 L 34.0625 -55.21875 C 33.5625 -55.21875 33.3125 -55.515625 33.3125 -56.109375 C 32.632812 -55.765625 32.039062 -55.59375 31.53125 -55.59375 C 31.445312 -55.59375 31.363281 -55.59375 31.28125 -55.59375 C 27.0625 -57.445312 24.953125 -59.175781 24.953125 -60.78125 L 24.953125 -64.203125 C 25.117188 -65.210938 25.539062 -65.71875 26.21875 -65.71875 C 26.21875 -65.71875 26.257812 -65.71875 26.34375 -65.71875 C 28.113281 -63.695312 30.222656 -62.519531 32.671875 -62.1875 C 43.734375 -66.320312 51.628906 -69.738281 56.359375 -72.4375 C 72.734375 -78.601562 87.882812 -83.835938 101.8125 -88.140625 C 104.519531 -89.492188 111.316406 -91.351562 122.203125 -93.71875 L 122.328125 -94.734375 C 121.398438 -98.867188 120.6875 -103.507812 120.1875 -108.65625 Z M 175.390625 -56.234375 C 176.660156 -56.234375 178.304688 -55.554688 180.328125 -54.203125 L 181.734375 -54.203125 L 184.515625 -56.234375 L 185.28125 -56.234375 C 186.707031 -54.453125 190.628906 -52.847656 197.046875 -51.421875 C 204.304688 -44.328125 208.066406 -38.035156 208.328125 -32.546875 C 209.085938 -32.546875 209.757812 -30.898438 210.34375 -27.609375 C 210.34375 -23.390625 208.488281 -19.882812 204.78125 -17.09375 C 201.570312 -17.09375 196 -18.738281 188.0625 -22.03125 C 184.769531 -22.03125 183.125 -22.960938 183.125 -24.828125 L 183.125 -31.78125 C 183.125 -36.09375 181.476562 -41.707031 178.1875 -48.625 C 173.875 -50.90625 168.550781 -52.507812 162.21875 -53.4375 L 161.46875 -54.828125 L 161.46875 -55.59375 C 166.957031 -55.082031 170.925781 -54.828125 173.375 -54.828125 C 173.625 -54.828125 174.296875 -55.296875 175.390625 -56.234375 Z M 67.125 -48.625 L 71.296875 -48.625 C 76.191406 -42.882812 79.234375 -38.914062 80.421875 -36.71875 C 81.347656 -30.8125 83.203125 -26.847656 85.984375 -24.828125 L 85.984375 -23.421875 C 84.546875 -22.410156 83.15625 -19.835938 81.8125 -15.703125 L 79.65625 -14.3125 C 69.019531 -16.757812 63.703125 -19.546875 63.703125 -22.671875 C 62.179688 -22.671875 60.742188 -26.890625 59.390625 -35.328125 C 63.023438 -43.691406 65.132812 -47.875 65.71875 -47.875 Z M 67.125 -48.625 "/></g></g></g></svg>